<?xml version="1.0" encoding="UTF-8"?>
<svg width="53px" height="37px" viewBox="0 0 53 37" version="1.1" xmlns="http://www.w3.org/2000/svg" xmlns:xlink="http://www.w3.org/1999/xlink">
    <!-- Generator: Sketch 40.3 (33839) - http://www.bohemiancoding.com/sketch -->
    <title>Axis_LogoEPS</title>
    <desc>Created with Sketch.</desc>
    <defs>
        <polygon id="path-1" points="0.0274137931 0.285103448 52.7651552 0.285103448 52.7651552 36.0674138 0.0274137931 36.0674138"></polygon>
        <polygon id="path-3" points="0.0274137931 0.285103448 52.7651552 0.285103448 52.7651552 36.0674138 0.0274137931 36.0674138"></polygon>
    </defs>
    <g id="Advanced-Hub" stroke="none" stroke-width="1" fill="none" fill-rule="evenodd">
        <g id="Desktop-Copy-2" transform="translate(-84.000000, -20.000000)">
            <g id="Axis_LogoEPS" transform="translate(84.000000, 20.000000)">
                <g id="Group-3">
                    <mask id="mask-2" fill="white">
                        <use xlink:href="#path-1"></use>
                    </mask>
                    <g id="Clip-2"></g>
                    <path d="M8.49416379,22.2220776 L8.44527586,22.2220776 L5.98717241,29.2313276 L10.9522672,29.2313276 L8.49416379,22.2220776 L8.49416379,22.2220776 Z M6.61997414,18.8145431 L10.4652155,18.8145431 L17.1340776,35.8024138 L13.3614828,35.8024138 L11.9012414,31.9082845 L5.01352586,31.9082845 L3.52906897,35.8024138 L0,35.8024138 L6.61997414,18.8145431 L6.61997414,18.8145431 Z" id="Fill-1" fill-opacity="0.9" fill="#FFFFFF" mask="url(#mask-2)"></path>
                </g>
                <polygon id="Fill-4" fill-opacity="0.9" fill="#FFFFFF" points="18.1072672 18.8145431 22.0502845 18.8145431 25.603569 24.8743621 29.2299569 18.8145431 32.8805603 18.8145431 27.7697155 26.9674052 33.3433966 35.8024138 29.3272759 35.8024138 25.408931 29.1824397 21.4416983 35.8024138 17.5964569 35.8024138 23.169681 26.9674052"></polygon>
                <g id="Group-8">
                    <mask id="mask-4" fill="white">
                        <use xlink:href="#path-3"></use>
                    </mask>
                    <g id="Clip-6"></g>
                    <polygon id="Fill-5" fill="#FFFFFF" opacity="0.9" mask="url(#mask-4)" points="35.2660172 18.8145431 38.6735517 18.8145431 38.6735517 35.8024138 35.2660172 35.8024138"></polygon>
                    <path d="M51.4506638,21.9301207 C50.3801552,21.4672845 49.1876552,21.1995431 47.9951552,21.1995431 C46.8264138,21.1995431 45.3181983,21.7108103 45.3181983,23.5603276 C45.3181983,26.5054828 52.7651552,25.2640948 52.7651552,30.9593103 C52.7651552,34.6830172 49.8204569,36.0948276 46.3887069,36.0948276 C44.5387328,36.0948276 43.7112931,35.8513017 42.0321983,35.4378103 L42.3488276,32.3711207 C43.5166552,33.0034655 44.8553621,33.4174138 46.194069,33.4174138 C47.4838879,33.4174138 49.2118707,32.7603966 49.2118707,31.2270517 C49.2118707,27.9899397 41.7644569,29.3286466 41.7644569,23.7065345 C41.7644569,19.9097241 44.7091552,18.5225862 47.7027414,18.5225862 C49.1634397,18.5225862 50.5263621,18.7172241 51.7672931,19.1311724 L51.4506638,21.9301207" id="Fill-7" fill="#FFFFFF" opacity="0.9" mask="url(#mask-4)"></path>
                </g>
                <path d="M6.99691379,12.4399224 L7.02752586,12.472819 L7.92852586,14.48225 C8.15651724,14.2122241 8.38633621,13.9431121 8.64356897,13.6749138 C8.90217241,13.3742759 9.18910345,13.1047069 9.47557759,12.8031552 L8.56589655,10.2943362 C8.05280172,10.9326207 7.56575,11.5695345 7.13992241,12.2388879 C7.08372414,12.3394052 7.02524138,12.4056552 6.99691379,12.4399224" id="Fill-9" fill-opacity="0.9" fill="#FFFFFF"></path>
                <path d="M10.7439224,7.91207759 C10.4300345,8.215 10.1129483,8.55218966 9.82510345,8.85374138 L10.5958879,11.7596034 C11.1994483,11.2547328 11.8020948,10.7471207 12.4353534,10.2756034 L11.7495517,6.9695 C11.4027672,7.27287931 11.0605517,7.61098276 10.7439224,7.91207759" id="Fill-10" fill="#8D99A1"></path>
                <path d="M13.6191724,5.51885345 C13.5323621,5.55312069 13.4469224,5.62028448 13.3893534,5.68653448 L13.9056466,9.32708621 C14.0792672,9.22337069 14.252431,9.08812931 14.4543793,8.98578448 C15.0031121,8.68149138 15.5532155,8.40781034 16.1289052,8.1350431 C16.2166293,8.09940517 16.3313103,8.03041379 16.4181207,7.99568966 L16.2719138,3.82376724 C15.3471552,4.33457759 14.4543793,4.91026724 13.6191724,5.51885345" id="Fill-11" fill="#8D99A1"></path>
                <g id="Group-15" transform="translate(17.818966, 0.000000)" fill="#8D99A1">
                    <path d="M0.423086207,7.27516379 C0.479741379,7.24135345 0.538681034,7.24135345 0.59487931,7.20708621 C0.943948276,7.10337069 1.29118966,6.99874138 1.60964655,6.89365517 C2.21823276,6.72003448 2.85514655,6.5450431 3.46556034,6.43858621 C3.5514569,6.40249138 3.63918103,6.40249138 3.72599138,6.36685345 L5.28081034,1.10980172 C4.03439655,1.42551724 2.78981034,1.84037931 1.57309483,2.32057759 C1.51598276,2.35438793 1.4579569,2.39093966 1.37114655,2.42337931 C1.1399569,2.52618103 0.908310345,2.59608621 0.707275862,2.69843103 L0.423086207,7.27516379" id="Fill-12"></path>
                    <path d="M5.87477586,6.07169828 C5.99265517,6.0680431 6.10733621,6.06621552 6.22430172,6.06621552 C6.34081034,6.06393103 6.45640517,6.06118966 6.60124138,6.02737931 L7.3002931,6.01869828 C7.32907759,6.01778448 7.38710345,6.01778448 7.41588793,6.0150431 C7.44421552,6.01687069 7.50452586,6.0150431 7.53331034,6.01367241 C8.43522414,6.0017931 9.30698276,6.02235345 10.1828534,6.10733621 C10.4738966,6.13612069 10.7653966,6.201 11.0564397,6.22887069 L11.2268621,5.86106897 C11.2835172,5.7632931 11.3388017,5.62896552 11.395,5.49600862 L13.79325,0.323025862 C13.1234397,0.301094828 12.486069,0.277793103 11.8158017,0.287387931 C11.7271638,0.287387931 11.6403534,0.289215517 11.5535431,0.290586207 C10.2746897,0.343586207 9.02416379,0.427198276 7.80562069,0.609043103 C7.77683621,0.643310345 7.71743966,0.645137931 7.68956897,0.645137931 L5.87477586,6.07169828" id="Fill-14"></path>
                </g>
                <path d="M35.1686983,0.737887931 C34.9644655,0.707732759 34.7908448,0.67712069 34.6153966,0.645137931 L31.208319,6.66063793 C31.4719483,6.75521552 31.7360345,6.81918103 32.0270776,6.91512931 L34.4842672,7.80653448 C34.511681,7.83806034 34.5729052,7.83714655 34.6300172,7.87141379 C35.2742414,8.15971552 35.9193793,8.45030172 36.5357328,8.80348276 C37.8726121,6.69810345 39.1820776,4.59181034 40.5185,2.48231897 L40.6039397,2.31509483 L40.6327241,2.31600862 C40.4860603,2.28631034 40.3686379,2.22325862 40.2512155,2.15700862 L40.1063793,2.12639655 C39.7838103,1.99846552 39.4324569,1.86916379 39.0806466,1.74306034 C37.8250948,1.33139655 36.5412155,0.983698276 35.2555086,0.735146552 C35.2276379,0.736060345 35.1970259,0.736974138 35.1686983,0.737887931" id="Fill-16" fill="#8D99A1"></path>
                <path d="M38.6470517,10.0992414 C38.7955431,10.197931 38.9129655,10.2961638 39.061,10.3921121 L41.7411552,12.6747672 C41.8288793,12.7716293 41.918431,12.8365086 42.0052414,12.9351983 C42.0349397,12.9676379 42.0934224,13.0000776 42.1244914,13.0338879 C42.1532759,13.0992241 42.2126724,13.1650172 42.2419138,13.1956293 C42.3013103,13.2637069 42.3593362,13.3285862 42.4187328,13.3591983 C42.5379828,13.5245948 42.656319,13.6552672 42.8048103,13.784569 L43.8099828,14.9647328 C43.8373966,14.9971724 43.8990776,15.0625086 43.9571034,15.1283017 L50.2686724,8.84186207 C49.7665431,8.35161207 49.2657845,7.86090517 48.7339569,7.37065517 C47.1421293,5.93782759 45.4082069,4.70100862 43.530819,3.66705172 L38.6470517,10.0992414" id="Fill-17" fill="#AC3531"></path>
            </g>
        </g>
    </g>
</svg>