<?xml version="1.0" encoding="UTF-8"?>
<svg width="68px" height="89px" viewBox="0 0 68 89" version="1.1" xmlns="http://www.w3.org/2000/svg" xmlns:xlink="http://www.w3.org/1999/xlink">
    <!-- Generator: Sketch 40.3 (33839) - http://www.bohemiancoding.com/sketch -->
    <title>1477247782_device-board-presentation-content-chart-outline-stroke</title>
    <desc>Created with Sketch.</desc>
    <defs></defs>
    <g id="Advanced-Hub" stroke="none" stroke-width="1" fill="none" fill-rule="evenodd" opacity="0.55">
        <g id="Desktop-Copy-2" transform="translate(-366.000000, -211.000000)" fill="#FFFFFF">
            <g id="1477247782_device-board-presentation-content-chart-outline-stroke" transform="translate(366.000000, 211.000000)">
                <g id="Group">
                    <g id="miu">
                        <g id="Artboard-1">
                            <path d="M40.828428,76 L66,76 C66,76 68,76.356436 68,74.178216 C68,72 66,72 66,72 L2,72 C2,72 3.99999999e-06,72 0,74.178216 C0,76.356436 2,76 2,76 L27.171572,76 L27.171572,76 L17.171572,86 L20,88.828428 L32.828428,76 L35.171572,76 L48,88.828428 L50.828428,86 L40.828428,76 L40.828428,76 Z M8,12 C8,12 0,12 0,20 L0,60 C0,68 8,68 8,68 L60,68 C60,68 68,68 68,60 L68,20 C68,12 60,12 60,12 L8,12 L8,12 Z M8,16 C8,16 4,16 4,20 L4,60 C4,64 8,64 8,64 L60,64 C60,64 64,64 64,60 L64,20 C64,16 60,16 60,16 L8,16 L8,16 Z M36,4 L36.207792,0 L32,0 L32,4 L28,4 L28,8 L40,8 L40,4 L36,4 L36,4 Z M40,52 L40,56 L60,56 L60,52 L40,52 L40,52 Z M8,20 L8,28 L60,28 L60,20 L8,20 L8,20 Z M40,40 L40,44 L60,44 L60,40 L40,40 L40,40 Z M20,60 C26.627416,60 32,54.627416 32,48 L20,48 L20,36 C13.372584,36 8,41.372584 8,48 C8,54.627416 13.372584,60 20,60 L20,60 Z" id="device-board-presentation-content-chart-outline-stroke"></path>
                        </g>
                    </g>
                </g>
            </g>
        </g>
    </g>
</svg>